<mxfile host="65bd71144e" scale="3" border="0">
    <diagram name="Page-1" id="ZVy1F0ii-m_2ruxqyH5N">
        <mxGraphModel dx="1033" dy="447" grid="1" gridSize="10" guides="1" tooltips="1" connect="1" arrows="1" fold="1" page="1" pageScale="1" pageWidth="827" pageHeight="1169" math="0" shadow="0">
            <root>
                <mxCell id="0"/>
                <mxCell id="1" parent="0"/>
                <mxCell id="86LDJdnnPElb6xJEOljt-3" value="" style="edgeStyle=orthogonalEdgeStyle;rounded=0;orthogonalLoop=1;jettySize=auto;html=1;" parent="1" source="86LDJdnnPElb6xJEOljt-1" target="86LDJdnnPElb6xJEOljt-2" edge="1">
                    <mxGeometry relative="1" as="geometry"/>
                </mxCell>
                <mxCell id="86LDJdnnPElb6xJEOljt-1" value="DÃ©but" style="rounded=1;whiteSpace=wrap;html=1;arcSize=50;" parent="1" vertex="1">
                    <mxGeometry x="330" y="80" width="136" height="50" as="geometry"/>
                </mxCell>
                <mxCell id="86LDJdnnPElb6xJEOljt-5" value="" style="edgeStyle=orthogonalEdgeStyle;rounded=0;orthogonalLoop=1;jettySize=auto;html=1;" parent="1" source="86LDJdnnPElb6xJEOljt-2" target="86LDJdnnPElb6xJEOljt-4" edge="1">
                    <mxGeometry relative="1" as="geometry"/>
                </mxCell>
                <mxCell id="86LDJdnnPElb6xJEOljt-2" value="Variable: age" style="rounded=0;whiteSpace=wrap;html=1;" parent="1" vertex="1">
                    <mxGeometry x="338" y="170" width="120" height="60" as="geometry"/>
                </mxCell>
                <mxCell id="86LDJdnnPElb6xJEOljt-7" value="" style="edgeStyle=orthogonalEdgeStyle;rounded=0;orthogonalLoop=1;jettySize=auto;html=1;" parent="1" source="86LDJdnnPElb6xJEOljt-4" target="86LDJdnnPElb6xJEOljt-6" edge="1">
                    <mxGeometry relative="1" as="geometry"/>
                </mxCell>
                <mxCell id="86LDJdnnPElb6xJEOljt-4" value="Lire: age" style="shape=parallelogram;perimeter=parallelogramPerimeter;whiteSpace=wrap;html=1;fixedSize=1;" parent="1" vertex="1">
                    <mxGeometry x="323" y="270" width="150" height="60" as="geometry"/>
                </mxCell>
                <mxCell id="86LDJdnnPElb6xJEOljt-6" value="age &amp;gt;= 18" style="rhombus;whiteSpace=wrap;html=1;" parent="1" vertex="1">
                    <mxGeometry x="328" y="370" width="140" height="80" as="geometry"/>
                </mxCell>
                <mxCell id="86LDJdnnPElb6xJEOljt-19" value="" style="edgeStyle=orthogonalEdgeStyle;rounded=0;orthogonalLoop=1;jettySize=auto;html=1;" parent="1" source="86LDJdnnPElb6xJEOljt-8" target="86LDJdnnPElb6xJEOljt-17" edge="1">
                    <mxGeometry relative="1" as="geometry"/>
                </mxCell>
                <mxCell id="86LDJdnnPElb6xJEOljt-8" value="Afficher: &quot;Je suis&amp;nbsp;&lt;div&gt;mineur&quot;&lt;/div&gt;" style="shape=parallelogram;perimeter=parallelogramPerimeter;whiteSpace=wrap;html=1;fixedSize=1;" parent="1" vertex="1">
                    <mxGeometry x="490" y="470" width="140" height="60" as="geometry"/>
                </mxCell>
                <mxCell id="86LDJdnnPElb6xJEOljt-18" value="" style="edgeStyle=orthogonalEdgeStyle;rounded=0;orthogonalLoop=1;jettySize=auto;html=1;" parent="1" source="86LDJdnnPElb6xJEOljt-9" target="86LDJdnnPElb6xJEOljt-15" edge="1">
                    <mxGeometry relative="1" as="geometry"/>
                </mxCell>
                <mxCell id="86LDJdnnPElb6xJEOljt-9" value="Afficher: &quot;Je suis&amp;nbsp;&lt;div&gt;majeur&quot;&lt;/div&gt;" style="shape=parallelogram;perimeter=parallelogramPerimeter;whiteSpace=wrap;html=1;fixedSize=1;" parent="1" vertex="1">
                    <mxGeometry x="150" y="470" width="140" height="60" as="geometry"/>
                </mxCell>
                <mxCell id="86LDJdnnPElb6xJEOljt-10" value="" style="endArrow=classic;html=1;rounded=1;exitX=1;exitY=0.5;exitDx=0;exitDy=0;entryX=0.5;entryY=0;entryDx=0;entryDy=0;" parent="1" source="86LDJdnnPElb6xJEOljt-6" target="86LDJdnnPElb6xJEOljt-8" edge="1">
                    <mxGeometry width="50" height="50" relative="1" as="geometry">
                        <mxPoint x="360" y="510" as="sourcePoint"/>
                        <mxPoint x="410" y="460" as="targetPoint"/>
                        <Array as="points">
                            <mxPoint x="560" y="410"/>
                        </Array>
                    </mxGeometry>
                </mxCell>
                <mxCell id="86LDJdnnPElb6xJEOljt-13" value="" style="endArrow=classic;html=1;rounded=1;exitX=0;exitY=0.5;exitDx=0;exitDy=0;entryX=0.5;entryY=0;entryDx=0;entryDy=0;curved=0;" parent="1" source="86LDJdnnPElb6xJEOljt-6" target="86LDJdnnPElb6xJEOljt-9" edge="1">
                    <mxGeometry width="50" height="50" relative="1" as="geometry">
                        <mxPoint x="360" y="510" as="sourcePoint"/>
                        <mxPoint x="410" y="460" as="targetPoint"/>
                        <Array as="points">
                            <mxPoint x="220" y="410"/>
                        </Array>
                    </mxGeometry>
                </mxCell>
                <mxCell id="86LDJdnnPElb6xJEOljt-15" value="Fin" style="rounded=1;whiteSpace=wrap;html=1;arcSize=50;" parent="1" vertex="1">
                    <mxGeometry x="152" y="585" width="136" height="50" as="geometry"/>
                </mxCell>
                <mxCell id="86LDJdnnPElb6xJEOljt-17" value="Fin" style="rounded=1;whiteSpace=wrap;html=1;arcSize=50;" parent="1" vertex="1">
                    <mxGeometry x="492" y="585" width="136" height="50" as="geometry"/>
                </mxCell>
                <mxCell id="86LDJdnnPElb6xJEOljt-20" value="Vrai" style="text;html=1;align=center;verticalAlign=middle;whiteSpace=wrap;rounded=0;" parent="1" vertex="1">
                    <mxGeometry x="250" y="380" width="60" height="30" as="geometry"/>
                </mxCell>
                <mxCell id="86LDJdnnPElb6xJEOljt-21" value="Faux" style="text;html=1;align=center;verticalAlign=middle;whiteSpace=wrap;rounded=0;" parent="1" vertex="1">
                    <mxGeometry x="480" y="380" width="60" height="30" as="geometry"/>
                </mxCell>
            </root>
        </mxGraphModel>
    </diagram>
</mxfile>